<mxfile host="app.diagrams.net" modified="2024-07-02T17:40:21.143Z" agent="Mozilla/5.0 (X11; Ubuntu; Linux x86_64; rv:127.0) Gecko/20100101 Firefox/127.0" etag="jQfXxj2K8I8jJ8Kro5PR" version="24.4.7" type="github">
  <diagram name="Page-1" id="2YBvvXClWsGukQMizWep">
    <mxGraphModel dx="1674" dy="790" grid="1" gridSize="10" guides="1" tooltips="1" connect="1" arrows="1" fold="1" page="1" pageScale="1" pageWidth="1169" pageHeight="827" math="0" shadow="0">
      <root>
        <mxCell id="0" />
        <mxCell id="1" parent="0" />
        <mxCell id="kJeLLSi_RfSuqpP4eZGx-26" value="Stocker le token et rediriger" style="html=1;verticalAlign=bottom;endArrow=block;edgeStyle=elbowEdgeStyle;elbow=vertical;curved=0;rounded=0;" edge="1" parent="1">
          <mxGeometry x="0.2865" relative="1" as="geometry">
            <mxPoint x="195" y="501" as="sourcePoint" />
            <Array as="points">
              <mxPoint x="280" y="501" />
            </Array>
            <mxPoint x="94.5" y="501" as="targetPoint" />
            <mxPoint as="offset" />
          </mxGeometry>
        </mxCell>
        <mxCell id="kJeLLSi_RfSuqpP4eZGx-24" value="Affiche confirmation" style="html=1;verticalAlign=bottom;endArrow=block;edgeStyle=elbowEdgeStyle;elbow=vertical;curved=0;rounded=0;" edge="1" parent="1">
          <mxGeometry x="0.2865" relative="1" as="geometry">
            <mxPoint x="194" y="340" as="sourcePoint" />
            <Array as="points">
              <mxPoint x="279" y="340" />
            </Array>
            <mxPoint x="93.5" y="340" as="targetPoint" />
            <mxPoint as="offset" />
          </mxGeometry>
        </mxCell>
        <mxCell id="aM9ryv3xv72pqoxQDRHE-1" value="Utilisateur" style="shape=umlLifeline;perimeter=lifelinePerimeter;whiteSpace=wrap;html=1;container=0;dropTarget=0;collapsible=0;recursiveResize=0;outlineConnect=0;portConstraint=eastwest;newEdgeStyle={&quot;edgeStyle&quot;:&quot;elbowEdgeStyle&quot;,&quot;elbow&quot;:&quot;vertical&quot;,&quot;curved&quot;:0,&quot;rounded&quot;:0};" parent="1" vertex="1">
          <mxGeometry x="40" y="40" width="100" height="920" as="geometry" />
        </mxCell>
        <mxCell id="aM9ryv3xv72pqoxQDRHE-2" value="" style="html=1;points=[];perimeter=orthogonalPerimeter;outlineConnect=0;targetShapes=umlLifeline;portConstraint=eastwest;newEdgeStyle={&quot;edgeStyle&quot;:&quot;elbowEdgeStyle&quot;,&quot;elbow&quot;:&quot;vertical&quot;,&quot;curved&quot;:0,&quot;rounded&quot;:0};" parent="aM9ryv3xv72pqoxQDRHE-1" vertex="1">
          <mxGeometry x="45" y="70" width="10" height="820" as="geometry" />
        </mxCell>
        <mxCell id="aM9ryv3xv72pqoxQDRHE-3" value="dispatch" style="html=1;verticalAlign=bottom;startArrow=oval;endArrow=block;startSize=8;edgeStyle=elbowEdgeStyle;elbow=vertical;curved=0;rounded=0;" parent="aM9ryv3xv72pqoxQDRHE-1" target="aM9ryv3xv72pqoxQDRHE-2" edge="1">
          <mxGeometry relative="1" as="geometry">
            <mxPoint x="-15" y="70" as="sourcePoint" />
          </mxGeometry>
        </mxCell>
        <mxCell id="aM9ryv3xv72pqoxQDRHE-5" value="&lt;div&gt;Application&lt;/div&gt;" style="shape=umlLifeline;perimeter=lifelinePerimeter;whiteSpace=wrap;html=1;container=0;dropTarget=0;collapsible=0;recursiveResize=0;outlineConnect=0;portConstraint=eastwest;newEdgeStyle={&quot;edgeStyle&quot;:&quot;elbowEdgeStyle&quot;,&quot;elbow&quot;:&quot;vertical&quot;,&quot;curved&quot;:0,&quot;rounded&quot;:0};" parent="1" vertex="1">
          <mxGeometry x="230" y="40" width="100" height="920" as="geometry" />
        </mxCell>
        <mxCell id="aM9ryv3xv72pqoxQDRHE-6" value="" style="html=1;points=[];perimeter=orthogonalPerimeter;outlineConnect=0;targetShapes=umlLifeline;portConstraint=eastwest;newEdgeStyle={&quot;edgeStyle&quot;:&quot;elbowEdgeStyle&quot;,&quot;elbow&quot;:&quot;vertical&quot;,&quot;curved&quot;:0,&quot;rounded&quot;:0};" parent="aM9ryv3xv72pqoxQDRHE-5" vertex="1">
          <mxGeometry x="45" y="80" width="10" height="810" as="geometry" />
        </mxCell>
        <mxCell id="aM9ryv3xv72pqoxQDRHE-7" value="Ouvrir l&#39;application" style="html=1;verticalAlign=bottom;endArrow=block;edgeStyle=elbowEdgeStyle;elbow=vertical;curved=0;rounded=0;" parent="1" source="aM9ryv3xv72pqoxQDRHE-2" target="aM9ryv3xv72pqoxQDRHE-6" edge="1">
          <mxGeometry relative="1" as="geometry">
            <mxPoint x="195" y="130" as="sourcePoint" />
            <Array as="points">
              <mxPoint x="180" y="120" />
            </Array>
          </mxGeometry>
        </mxCell>
        <mxCell id="aM9ryv3xv72pqoxQDRHE-8" value="Affiche (Accueille)" style="html=1;verticalAlign=bottom;endArrow=open;dashed=1;endSize=8;edgeStyle=elbowEdgeStyle;elbow=vertical;curved=0;rounded=0;" parent="1" edge="1">
          <mxGeometry relative="1" as="geometry">
            <mxPoint x="295" y="172" as="targetPoint" />
            <Array as="points">
              <mxPoint x="390" y="172" />
            </Array>
            <mxPoint x="509.5" y="172" as="sourcePoint" />
          </mxGeometry>
        </mxCell>
        <mxCell id="kJeLLSi_RfSuqpP4eZGx-1" value="Backend " style="shape=umlLifeline;perimeter=lifelinePerimeter;whiteSpace=wrap;html=1;container=0;dropTarget=0;collapsible=0;recursiveResize=0;outlineConnect=0;portConstraint=eastwest;newEdgeStyle={&quot;edgeStyle&quot;:&quot;elbowEdgeStyle&quot;,&quot;elbow&quot;:&quot;vertical&quot;,&quot;curved&quot;:0,&quot;rounded&quot;:0};" vertex="1" parent="1">
          <mxGeometry x="460" y="40" width="100" height="920" as="geometry" />
        </mxCell>
        <mxCell id="kJeLLSi_RfSuqpP4eZGx-2" value="" style="html=1;points=[];perimeter=orthogonalPerimeter;outlineConnect=0;targetShapes=umlLifeline;portConstraint=eastwest;newEdgeStyle={&quot;edgeStyle&quot;:&quot;elbowEdgeStyle&quot;,&quot;elbow&quot;:&quot;vertical&quot;,&quot;curved&quot;:0,&quot;rounded&quot;:0};" vertex="1" parent="kJeLLSi_RfSuqpP4eZGx-1">
          <mxGeometry x="45" y="80" width="10" height="810" as="geometry" />
        </mxCell>
        <mxCell id="kJeLLSi_RfSuqpP4eZGx-3" value="&lt;div&gt;Base de données&lt;/div&gt;" style="shape=umlLifeline;perimeter=lifelinePerimeter;whiteSpace=wrap;html=1;container=0;dropTarget=0;collapsible=0;recursiveResize=0;outlineConnect=0;portConstraint=eastwest;newEdgeStyle={&quot;edgeStyle&quot;:&quot;elbowEdgeStyle&quot;,&quot;elbow&quot;:&quot;vertical&quot;,&quot;curved&quot;:0,&quot;rounded&quot;:0};" vertex="1" parent="1">
          <mxGeometry x="690" y="40" width="100" height="920" as="geometry" />
        </mxCell>
        <mxCell id="kJeLLSi_RfSuqpP4eZGx-4" value="" style="html=1;points=[];perimeter=orthogonalPerimeter;outlineConnect=0;targetShapes=umlLifeline;portConstraint=eastwest;newEdgeStyle={&quot;edgeStyle&quot;:&quot;elbowEdgeStyle&quot;,&quot;elbow&quot;:&quot;vertical&quot;,&quot;curved&quot;:0,&quot;rounded&quot;:0};" vertex="1" parent="kJeLLSi_RfSuqpP4eZGx-3">
          <mxGeometry x="45" y="80" width="10" height="800" as="geometry" />
        </mxCell>
        <mxCell id="kJeLLSi_RfSuqpP4eZGx-5" value="Afficher (Premier)" style="html=1;verticalAlign=bottom;endArrow=block;edgeStyle=elbowEdgeStyle;elbow=vertical;curved=0;rounded=0;" edge="1" parent="1">
          <mxGeometry relative="1" as="geometry">
            <mxPoint x="286" y="140" as="sourcePoint" />
            <Array as="points">
              <mxPoint x="361" y="140" />
            </Array>
            <mxPoint x="505.5" y="140" as="targetPoint" />
          </mxGeometry>
        </mxCell>
        <mxCell id="kJeLLSi_RfSuqpP4eZGx-14" value="" style="html=1;points=[];perimeter=orthogonalPerimeter;outlineConnect=0;targetShapes=umlLifeline;portConstraint=eastwest;newEdgeStyle={&quot;edgeStyle&quot;:&quot;elbowEdgeStyle&quot;,&quot;elbow&quot;:&quot;vertical&quot;,&quot;curved&quot;:0,&quot;rounded&quot;:0};" vertex="1" parent="1">
          <mxGeometry x="285" y="136" width="10" height="44" as="geometry" />
        </mxCell>
        <mxCell id="kJeLLSi_RfSuqpP4eZGx-17" value="Création de compte" style="html=1;verticalAlign=bottom;endArrow=block;edgeStyle=elbowEdgeStyle;elbow=vertical;curved=0;rounded=0;" edge="1" parent="1">
          <mxGeometry relative="1" as="geometry">
            <mxPoint x="96" y="199" as="sourcePoint" />
            <Array as="points">
              <mxPoint x="181" y="199" />
            </Array>
            <mxPoint x="276" y="199" as="targetPoint" />
          </mxGeometry>
        </mxCell>
        <mxCell id="kJeLLSi_RfSuqpP4eZGx-18" value="&lt;div&gt;Affiche Créer Compte&lt;/div&gt;" style="html=1;verticalAlign=bottom;endArrow=block;edgeStyle=elbowEdgeStyle;elbow=vertical;curved=0;rounded=0;" edge="1" parent="1">
          <mxGeometry relative="1" as="geometry">
            <mxPoint x="287" y="210" as="sourcePoint" />
            <Array as="points">
              <mxPoint x="363" y="210" />
            </Array>
            <mxPoint x="502.5" y="210" as="targetPoint" />
          </mxGeometry>
        </mxCell>
        <mxCell id="kJeLLSi_RfSuqpP4eZGx-20" value="Entrer les informations " style="html=1;verticalAlign=bottom;endArrow=block;edgeStyle=elbowEdgeStyle;elbow=vertical;curved=0;rounded=0;" edge="1" parent="1">
          <mxGeometry relative="1" as="geometry">
            <mxPoint x="97" y="240" as="sourcePoint" />
            <Array as="points">
              <mxPoint x="172" y="240" />
            </Array>
            <mxPoint x="271" y="240" as="targetPoint" />
          </mxGeometry>
        </mxCell>
        <mxCell id="kJeLLSi_RfSuqpP4eZGx-22" value="Sauvegarder utilisateur" style="html=1;verticalAlign=bottom;endArrow=block;edgeStyle=elbowEdgeStyle;elbow=vertical;curved=0;rounded=0;" edge="1" parent="1">
          <mxGeometry relative="1" as="geometry">
            <mxPoint x="515" y="286" as="sourcePoint" />
            <Array as="points">
              <mxPoint x="590" y="286" />
            </Array>
            <mxPoint x="734.5" y="286" as="targetPoint" />
          </mxGeometry>
        </mxCell>
        <mxCell id="kJeLLSi_RfSuqpP4eZGx-23" value="Réponse succès" style="html=1;verticalAlign=bottom;endArrow=block;edgeStyle=elbowEdgeStyle;elbow=vertical;curved=0;rounded=0;" edge="1" parent="1">
          <mxGeometry x="0.2833" y="-5" relative="1" as="geometry">
            <mxPoint x="428" y="316" as="sourcePoint" />
            <Array as="points">
              <mxPoint x="503" y="316" />
            </Array>
            <mxPoint x="285" y="316" as="targetPoint" />
            <mxPoint as="offset" />
          </mxGeometry>
        </mxCell>
        <mxCell id="kJeLLSi_RfSuqpP4eZGx-25" value="POST (/api/auth/signup)" style="html=1;verticalAlign=bottom;endArrow=block;edgeStyle=elbowEdgeStyle;elbow=vertical;curved=0;rounded=0;" edge="1" parent="1">
          <mxGeometry relative="1" as="geometry">
            <mxPoint x="287" y="259" as="sourcePoint" />
            <Array as="points">
              <mxPoint x="363" y="259" />
            </Array>
            <mxPoint x="502.5" y="259" as="targetPoint" />
          </mxGeometry>
        </mxCell>
        <mxCell id="kJeLLSi_RfSuqpP4eZGx-27" value="Entrer les informations " style="html=1;verticalAlign=bottom;endArrow=block;edgeStyle=elbowEdgeStyle;elbow=vertical;curved=0;rounded=0;" edge="1" parent="1">
          <mxGeometry relative="1" as="geometry">
            <mxPoint x="96" y="384" as="sourcePoint" />
            <Array as="points">
              <mxPoint x="171" y="384" />
            </Array>
            <mxPoint x="270" y="384" as="targetPoint" />
          </mxGeometry>
        </mxCell>
        <mxCell id="kJeLLSi_RfSuqpP4eZGx-28" value="POST (/api/auth/login)" style="html=1;verticalAlign=bottom;endArrow=block;edgeStyle=elbowEdgeStyle;elbow=vertical;curved=0;rounded=0;" edge="1" parent="1">
          <mxGeometry relative="1" as="geometry">
            <mxPoint x="286" y="398" as="sourcePoint" />
            <Array as="points">
              <mxPoint x="362" y="398" />
            </Array>
            <mxPoint x="501.5" y="398" as="targetPoint" />
          </mxGeometry>
        </mxCell>
        <mxCell id="kJeLLSi_RfSuqpP4eZGx-29" value="Vérifie l&#39;Utilisateur " style="html=1;verticalAlign=bottom;endArrow=block;edgeStyle=elbowEdgeStyle;elbow=vertical;curved=0;rounded=0;" edge="1" parent="1">
          <mxGeometry relative="1" as="geometry">
            <mxPoint x="517" y="434" as="sourcePoint" />
            <Array as="points">
              <mxPoint x="592" y="434" />
            </Array>
            <mxPoint x="736.5" y="434" as="targetPoint" />
          </mxGeometry>
        </mxCell>
        <mxCell id="kJeLLSi_RfSuqpP4eZGx-30" value="Reçois les informations (TOKEN)" style="html=1;verticalAlign=bottom;endArrow=block;edgeStyle=elbowEdgeStyle;elbow=vertical;curved=0;rounded=0;" edge="1" parent="1">
          <mxGeometry x="0.2833" y="-5" relative="1" as="geometry">
            <mxPoint x="428" y="464" as="sourcePoint" />
            <Array as="points">
              <mxPoint x="503" y="464" />
            </Array>
            <mxPoint x="285" y="464" as="targetPoint" />
            <mxPoint as="offset" />
          </mxGeometry>
        </mxCell>
        <mxCell id="kJeLLSi_RfSuqpP4eZGx-31" value="Affiche confirmation" style="html=1;verticalAlign=bottom;endArrow=block;edgeStyle=elbowEdgeStyle;elbow=vertical;curved=0;rounded=0;" edge="1" parent="1">
          <mxGeometry x="0.2865" relative="1" as="geometry">
            <mxPoint x="194" y="564" as="sourcePoint" />
            <Array as="points">
              <mxPoint x="279" y="564" />
            </Array>
            <mxPoint x="93.5" y="564" as="targetPoint" />
            <mxPoint as="offset" />
          </mxGeometry>
        </mxCell>
      </root>
    </mxGraphModel>
  </diagram>
</mxfile>
